<?xml version="1.0" encoding="UTF-8"?>
<svg id="a" data-name="Capa 1" xmlns="http://www.w3.org/2000/svg" viewBox="0 0 1000 372.43">
  <defs>
    <style>
      .b {
        fill: #fff;
      }
    </style>
  </defs>
  <path class="b" d="M247.09,113.63c-15.72,0-27.14,11.89-27.14,28.28s11.42,28.29,27.14,28.29,27.02-11.89,27.02-28.29-11.37-28.28-27.02-28.28M247.09,176.7c-19.96,0-35.01-14.96-35.01-34.79s15.05-34.79,35.01-34.79,34.89,14.96,34.89,34.79-15,34.79-34.89,34.79"/>
  <polygon class="b" points="416.56 174.46 416.56 108.01 424.03 108.01 424.03 168.32 456.3 168.32 456.3 174.46 416.56 174.46"/>
  <polygon class="b" points="355.14 174.3 355.14 107.85 396.11 107.85 396.11 113.98 362.61 113.98 362.61 138.03 392.3 138.03 392.3 143.96 362.61 143.96 362.61 168.16 397.55 168.16 397.55 174.3 355.14 174.3"/>
  <polygon class="b" points="310.88 174.3 310.88 113.98 290.13 113.98 290.13 107.85 339 107.85 339 113.98 318.25 113.98 318.25 174.3 310.88 174.3"/>
  <polygon class="b" points="186.33 174.15 186.46 144.29 149.43 144.29 149.31 174.15 141.83 174.15 141.83 107.7 149.31 107.7 149.43 138.06 186.46 138.06 186.33 107.7 193.8 107.7 193.8 174.15 186.33 174.15"/>
  <polygon class="b" points="66.67 220.56 45.92 220.56 45.92 211.01 98.22 211.01 98.22 220.56 77.46 220.56 77.46 280.88 66.67 280.88 66.67 220.56"/>
  <path class="b" d="M115.23,211.01h44.04c.19,0,.35.16.35.35v8.85c0,.19-.16.35-.35.35h-33.15v20.63h29.35c.19,0,.35.16.35.35v8.65c0,.19-.16.35-.35.35h-29.35v20.78h34.59c.19,0,.35.16.35.35v8.85c0,.19-.16.35-.35.35h-45.48v-69.88Z"/>
  <path class="b" d="M197.88,253.55c13.87,0,19.42-6.06,19.42-16.44s-5.76-16.54-19.42-16.54h-6.16v32.98h6.16ZM229.22,280.88h-12.54l-12.53-18.39c-1.95.21-3.91.41-5.86.41h-6.58v17.98h-10.89v-69.49c0-.21.18-.39.39-.39h17.08c19.32,0,30.11,10.07,30.11,26.1,0,10.79-4.83,18.19-13.98,22.2l14.8,21.58Z"/>
  <path class="b" d="M250.25,207.83l33.94,39.84,33.52-39.94c.22-.26.64-.1.64.23v72.91h-10.38l-.19-45.54-23.59,27.84-24.16-28.05-.04,45.75h-10.38v-72.82c0-.34.42-.49.64-.23"/>
  <path class="b" d="M381.81,271.23l-16.22-39.01-15.87,39.08,32.09-.07ZM365.96,207.84l30.9,72.49c.11.26-.08.55-.36.55h-60.57c-.28,0-.47-.28-.36-.55l29.67-72.49c.13-.33.59-.33.73,0"/>
  <path class="b" d="M408.41,267.32l8.94-4.93c3.29,5.45,7.5,9.76,16.03,9.76,7.09,0,12.13-3.8,12.13-9.56,0-6.06-4.11-8.73-11.71-12.13l-4.62-2.05c-10.17-4.52-16.34-9.66-16.34-20.45s8.02-17.78,19.63-17.78c9.25,0,15.52,3.49,19.73,10.99l-8.53,5.24c-2.67-4.62-5.76-6.78-11.2-6.78s-9.04,3.39-9.04,8.12c0,5.24,2.98,7.6,10.07,10.69l4.52,2.05c11.92,5.24,18.29,10.79,18.29,21.99,0,12.23-9.56,19.32-22.71,19.32s-21.27-6.58-25.18-14.49"/>
  <path class="b" d="M362.18,361.89l-16.26-39.1-15.87,39.08,32.13.02ZM346.55,299.02l30.48,71.5c.19.44-.13.93-.62.93h-59.75c-.48,0-.8-.48-.62-.92l29.27-71.5c.22-.55,1-.55,1.23,0"/>
  <path class="b" d="M-.81,336.56c0-20.86,16.03-35.76,35.86-35.76,12.49,0,21.72,4.59,27.88,13.77.04.06.03.13-.03.17l-8.13,5.82c-.05.04-.13.03-.16-.03-3.91-6.01-10.47-9.97-19.56-9.97-14.49,0-24.76,11.1-24.76,26s10.28,26.1,24.76,26.1c9.61,0,16.07-4.27,20.59-10.9.04-.05.11-.07.16-.03l8.13,5.72c.05.04.07.11.03.17-6.07,9.19-15.91,14.8-28.91,14.8-19.83,0-35.86-15-35.86-35.86"/>
  <polygon class="b" points="126.79 301.62 126.92 331.98 93.32 331.98 93.19 301.62 82.3 301.62 82.3 371.5 93.19 371.5 93.32 341.64 126.92 341.64 126.79 371.5 137.68 371.5 137.68 301.62 126.79 301.62"/>
  <rect class="b" x="161.94" y="301.62" width="10.79" height="69.88"/>
  <path class="b" d="M196.77,301.62h10.89v60.32h32.13c.08,0,.14.06.14.14v9.29c0,.08-.06.14-.14.14h-42.89c-.08,0-.14-.06-.14-.14v-69.74Z"/>
  <path class="b" d="M257.41,301.62h10.89v60.32h32.13c.08,0,.14.06.14.14v9.29c0,.08-.06.14-.14.14h-42.89c-.08,0-.14-.06-.14-.14v-69.74Z"/>
  <path class="b" d="M404.31,323.63l-.02,47.87h-10.07v-72.59c0-.48.59-.71.92-.36l44.79,49.08.02-45.84c0-.09.08-.17.17-.17h9.73c.09,0,.17.08.17.17v70.12c0,.71-.87,1.05-1.35.52l-44.36-48.8Z"/>
  <path class="b" d="M779.56,172.58c-.18,9.54-.85,19.09-.83,28.64.02,8.57.37,17.16.41,25.75.07,17.11-.13,34.16-.13,51.24-1.03-2.99-2.01-6.04-2.9-9.2-.56-1.97-3.01-9.15-3.29-11.36l-.05,2.41c.68,2.22,2.97,10.95,3.65,13.18.52,1.7.86,3.51,1.43,5.2.39,1.15.78,2.29,1.18,3.43.04,9.21.56,18.35.68,27.55.06,4.64.04,9.28.01,13.91-.62-1.07-1.09-2.2-1.35-3.83-.33-2.05-.75-4.02-1.2-5.97-.99-4.22-.99-8.8-1.5-13.36l-3.83-17.18-.48.58c-.41.49,1.88,13.13,2.22,15.08.45,2.56.74,6.27,1.21,8.81.31,1.68,1.39,6.79,1.57,7.65.2.96.48,1.86.6,2.88-.77-.76-1.35-2.38-1.93-3.51-.75-1.45-4.13-8.51-4.88-9.96l-.14.88c.46.82,2.19,6.01,2.7,7,.7,1.37,1.41,2.73,2.11,4.11,1.26,2.53,2.46,5.11,3.83,7.46.37.64.73,1.29,1.08,1.94-.02,3.36-.04,6.71-.04,10.07,0,5.81.02,20.25-.03,36.78h15.58c-.12-26.47-.49-53.48-.53-79.95-.05-32.24.6-64.43.58-96.66-.01-16.59-.14-33.22.22-49.8.03-1.18.09-2.35.13-3.53l-15.78-9.24c-.02,12.99-.02,25.98-.27,39.01"/>
  <path class="b" d="M997.16,335.29c.21,7.93-.26,12.95-.7,16.03-.2,1.41-1.6,7.87-2.11,8.29-1.5-6.06-2.6-12.62-3.57-19.14.69-3.1,1.36-6.2,2.04-9.31l-21.79-12.58c-.07,2.21-.16,4.41-.19,6.61-.09,7.87-.18,15.75-.08,23.62.05,4.09-.02,8.17-.08,12.26-.02,1.57-.09,8.06-.13,11.66h16.72c-.13-7.05-.42-15.12,1.08-21.59.35-1.52.68-3.05,1.03-4.57.72,5.06,1.44,10.13,2.29,15.1.83,4.81,1.63,6.65,2.52,11.06h5.79v-36.21l-2.84-1.24Z"/>
  <path class="b" d="M963.1,314.01l-10.42-6.02c.01.17.06.33.07.5.01.14.04.26.06.39.04,5.42.08,10.84.1,16.25-.43-.93-.79-2.02-1.15-2.99-.63-1.68-1.25-3.37-1.87-5.06-1.18-3.27-2.3-6.59-3.28-10.08-.16-.58-.55-1.77-.96-3.07l-.96-.55c.77,2.47,1.78,5.74,2.15,6.98.41,1.35.68,2.8,1.14,4.14,1.15,3.41,2.36,6.75,3.57,10.09.45,1.24.94,2.43,1.37,3.69,0,2.87.01,5.74,0,8.62,0,6.41-.04,12.82-.08,19.24-.93-1.74-1.83-3.52-2.86-5.1-.74-1.14-1.31-2.16-1.59-3.88-.26-1.63-.59-3.2-.96-4.75-.79-3.36-2.02-10.41-2.44-14.03-.19-1.68-.28-3.85-.53-5.52l-.5.16c.36,2.03,1.19,12.54,1.57,14.56.25,1.34,1.11,5.4,1.25,6.08.16.76.38,1.48.48,2.29-.61-.6-1.07-1.89-1.54-2.8-.59-1.16-1.19-2.31-1.78-3.47l-2.15-5.77-.53.72c.09.33.52,1.27.49,1.2.33.58,1.72,4.87,2.12,5.66.56,1.09,1.12,2.17,1.67,3.27,1,2.01,1.96,4.06,3.04,5.93,1.12,1.94,2.11,3.91,3.06,6.09.35.8.76,1.51,1.17,2.21-.03,4.39-.07,9.34-.1,13.75h9.98v-3.28c.01-6.68-.1-13.35-.02-20.03.08-7.12.43-14.19.45-21.32,0-4.7-.01-9.41-.03-14.1"/>
  <path class="b" d="M938.58,299.86l-7.88-4.55c-.06,3.46-.1,6.94-.25,10.34-.47.26-1.77-8.01-2.37-11.85l-3.42-1.98c.36,3.01.6,6.12,1.22,8.9,1.02,4.55,1.95,9.24,2.93,13.85.46,2.15,1.16,4.53,1.37,6.91.27,2.95.11,6.34.13,9.34.06,11.86.16,23.72.26,35.57.02,1.93-.05,4.4-.05,6.35h8.1c-.02-4.91-.08-10.35-.08-15.24,0-19.21.02-38.43.04-57.64"/>
  <path class="b" d="M921.99,312.76c-.75,1.46-1.5,2.93-2.25,4.39-.59,1.14-1.17,2.77-1.95,3.54.13-1.02.41-1.93.61-2.9.18-.86,1.27-6,1.58-7.7.48-2.55.77-6.3,1.22-8.87.21-1.2,1.14-6.4,1.75-10.39l-1.31-.76c-.13.51-.25,1.02-.3,1.39-.32,2.11-2,9.17-2.25,11.29-.52,4.59-.52,9.2-1.51,13.45-.46,1.97-.88,3.95-1.21,6.01-.35,2.18-1.07,3.47-2.01,4.91-1.84,2.83-3.36,6.17-5.13,9.13-.63-.86-.41-5.31-.46-6.59-.11-2.41-.2-4.81-.16-7.2.11-5.43.62-10.75.87-16.14.12-2.47.14-4.79.81-6.95.62-2,1.4-3.82,2.09-5.72.89-2.46,1.75-4.94,2.62-7.41l-1.07-.62c-.6,1.65-1.21,3.3-1.82,4.94-.69,1.82-1.33,3.98-2.33,5.3-.16-1.1-.35-2.22-.43-3.34-.1-1.37.19-2.71.05-4.06-.19-1.83-.09-3.64.03-5.44l-2.93-1.69c-.03,1.45-.06,2.81-.08,3.57-.08,2.51.06,4.87.2,7.39.08,1.45.58,14.87-.62,14.38-.37-4.85.94-15.27-.98-14.55l-.8,45.52c.81,8.47,1,17.05,1.41,25.53.15,3,.28,6.53.42,9.55h5.65c0-.11,0-.23-.01-.34-.09-1.47-.19-3.51-.3-4.98l-.41-4.54c.01-3.09-.6-6.33-.86-9.42-.33-3.86-.45-7.73-.67-11.6-.1-1.8.03-2.46.73-3.68.7-1.22,1.45-2.4,2.05-3.78,1.21-2.76,2.44-5.25,3.87-7.71,1.37-2.37,2.58-4.97,3.85-7.51.7-1.4,1.41-2.76,2.12-4.14.51-1,2.95-7.75,3.46-8.96l-.55-.17c-.81-.05-2.55,5.93-3.01,6.83"/>
  <path class="b" d="M853.28,305.18c-4.78-5.04-9.03-10.76-13.99-15.56-2.54-2.45-5.29-5.23-7.29-8.65-2.03-3.45-2.54-3.24-2.22-9.98.45-2.68,1.31-5.34,1.91-7.77,1.5-6.1,2.93-12.31,4.5-18.34,1.17-4.51,1.96-9.29,2.56-14.2.1.17.21.34.31.5,1.99,3.27,4.2,6.4,6.01,9.83,1.96,3.71,2.37,7.75,3.04,12.06,1.46,9.37,3.52,18.6,4.61,28.06.48,4.16.61,8.35.71,12.55.06,2.22,1.29,9.96-.14,11.5M829.16,251.4c-.64-12.45-.62-25.32-.72-37.93,2.07,3.55,4.17,7.07,6.28,10.57-.42,3.12-.9,6.22-1.5,9.32-.43,2.22-3.19,18.46-4.06,18.04M816.67,235.34c-1.09-2.78-2.06-5.27-2.5-6.68.65-1.45,1.3-2.92,1.96-4.37.18-.39.36-.78.54-1.16,0,3.95,0,7.89,0,11.84v.37ZM814.49,222.24c.24-1.15,1.67-8,2.09-10.27.03-.15.06-.31.09-.48,0,2.84,0,5.69,0,8.53-.23.49-.46.98-.68,1.47-.7,1.49-1.41,3.64-2.3,4.61.19-1.37.53-2.58.8-3.86M902.99,330.12l-.49-11.41.6-29.53c-.2-5.51-.02-10.87.24-16.23v-30.64l-9.08-5.24s0,.03-.01.04c0-.02-.01-.04-.02-.06l-15.63-9.03c.47,4.99.83,10.11,1.88,14.93,2.46,11.32,3.33,22.98,3.53,34.64.22,12.89-.26,25.78-.05,38.65.1,6.06.04,12.13.03,18.19,0,2.2.9,15.64-.35,16.28l-9.98-34.69c-1.43-6.2-2.87-12.4-4.37-18.57-.68-2.79-1.51-5.54-2.13-8.34-.53-2.38-.14-4.91.04-7.31.45-6.09,1.59-11.96,1.82-18.07.21-5.56.95-11,1.42-16.52.46-5.44.1-11.12.87-16.49.28-1.98.4-4.37.95-6.35l-5.03-2.9c-.09,1.7-.18,3.41-.27,5.11-.36,6.89-1.6,13.36-2.15,20.23-.51,6.52-.75,13.34-1.88,19.74-1.86,0-2.21-22.07-2.19-24.64.05-8.03.13-16.09.11-24.12l-3.69-2.13c-.09,4.13-.2,8.26-.28,12.38-.18,8.47-.02,16.94-.2,25.42-2.87.94-3.71-22.49-3.73-25.01-.03-4.41-.05-8.53-.62-12.9-.09-.71-.22-1.75-.36-2.89l-8.2-4.73c.03.14.09.24.12.38.77,4.5,1.9,9.02,1.63,13.64-.13,2.35.78,4.67.76,7.07-.02,1.95-.3,3.91-.55,5.84-2.62-2.22-4.54-5.89-6.47-8.99.65-6.49,1.12-13.08,1.75-19.54l-3.93-2.27c-.34,2.9-.65,5.79-.99,8.69-.27,2.27-.53,4.5-.8,6.71-.96-1.56-1.92-3.12-2.86-4.69-1.38-2.26-2.72-4.54-4.05-6.83-.04-2.94-.06-5.91.2-8.8l-12.05-6.96c.05,4.41.09,8.83.11,13.24-.8,5.04-1.92,9.87-2.99,14.59-.31,1.37-.61,2.75-.89,4.15-1.01-3.02-5.74-20.39-6.53-19.65-.38.36,4.31,18.48,5.9,23.04-.03.16-.06.32-.08.48-.48,2.92-1.33,4.59-2.43,6.46-2.15,3.66-3.98,8.04-6.04,11.89-.66-1.22-.21-7.22-.21-8.95,0-3.27,0-6.52.16-9.75.36-7.34,1.16-14.49,1.69-21.76.25-3.34.38-6.47,1.2-9.33.77-2.65,1.71-5.04,2.56-7.56.12-.34.23-.69.35-1.03l-1.32-.76c-.58,1.71-1.19,3.39-1.97,4.54-.13-1.5.65-3.29.62-4.81,0-.18.04-.31.04-.48h-.01v-37.21l-.92-.54-1.45,35.09c.36,3.07-.21,6.08-.19,7.89.02,1.96-.59,16.48-1.88,15.71,0-.28-.02-.6-.03-.94l1.12-22.81c-.32-2.74-.59-5.41-.5-7.01.18-2.97.61-11.96.66-13.97.08-3.13.16-6.26.25-9.39.03-1.02.18-3.03.38-5.52l-2-1.17-1.51,20.39c.13,4.54-2.34,38.46-.2,51.99l-2.39,28.84c.5,11.53.33,23.15.39,34.67.03,5.93.04,11.86.08,17.79.04,6.15-.15,12.85.34,18.96l.23,1.1c-.08-.38-.16-.77-.24-1.15.18,6.86,2.13,48.13,2.7,53.53h5.85c-.45-15.64-2.92-60.15-2.78-66.79.08-3.73.13-7.43.08-11.19-.03-2-.07-4-.13-6l-.76-19.01c-.18-5.25-.14-10.5-.2-15.75-.03-2.45.14-3.32.97-4.92.82-1.58,1.7-3.11,2.42-4.92,1.45-3.63,2.93-6.88,4.6-10.08.58-1.1,1.13-2.25,1.67-3.42,1.17,3.25,2.43,6.63,3.44,9.32,0,7.62.02,15.24.03,22.86-.48-.67-7.74-15.79-8.27-16.35l-.45.25c.45.62,5.88,16.93,5.72,16.51.46,1.17,2.06,2.07,3,3.43.02,17.8.04,35.6.03,53.4,0,17.35-.18,35.27-.32,52.64h12.72s.03-18.29-.02-19.31c-.33-7.16-.23-14.36-.15-21.54.16-15.71.3-31.42.41-47.13,0-.72,0-1.47,0-2.22,1.79,2.22,3.62,4.4,5.54,6.47,3.87,4.18,7.3,8.43,10.69,13.16,1.69,2.36,3.71,4.37,5.62,6.44,1.92,2.09,2.34,3.22,2.36,6.37.06,6.74.34,13.5.13,20.24-.17,5.39-1.19,11.09-.68,16.47l-.38,15.66c0,1.63.14,3.76.2,5.4h13.8c-.13-6.79-.3-14.11-.44-20.88-.29-14.82-1.12-29.77-.42-44.58,4.26,15.33,7.09,31.26,11.3,46.62,1.68,6.11,3.43,12.75,5.2,18.84h21.46c.05-6.2,0-12.95-.08-19.14-.11-7.82-.79-15.66-.68-23.48"/>
  <path class="b" d="M727.49,270.46c-.43-.72-.28-4.44-.32-5.51-.07-2.01-.14-4.02-.11-6.02,0-.23.01-.46.02-.69.62,2.94,1.26,5.88,1.92,8.81-.5,1.16-.99,2.31-1.52,3.41M726.22,206.72c.06,0,.09,1.46.09,1.66-.06,0-.09-1.46-.09-1.66M704.39,130.31c-2.42.87-3.75-12.69-4.4-23.62,1.4-2.1,2.95-4.42,4.57-6.87-.09,10.17.02,20.33-.17,30.49M699.87,206.01c-6.34-7.37-11.97-15.75-18.54-22.77-1.15-1.23-2.21-2.41-3.17-3.66,2.11-12.26,3.74-24.58,5.24-36.99.43-3.54.15-9.4,1.89-12.49,1.97-3.5,4.09-6.9,6.18-10.31.67,3.19,1.06,6.52,1.54,9.96,1.93,13.71,4.67,27.21,6.11,41.06.63,6.09.8,12.22.94,18.36.07,3.25,1.72,14.58-.18,16.84M676.61,151.11c-.77,6.6-1.78,13.11-2.9,19.58-1.48-5.15-3.22-10.08-5.09-14.97-1.1-2.89-2.22-5.79-3.32-8.73.06-.28.13-.56.19-.85,1.12-5.3,2.24-10.6,3.36-15.9,2.24-10.63,4.45-21.27,6.95-31.8.49-2.08,1.07-4.49,1.72-7.04,1.16,2.11,2.32,4.22,3.48,6.33.47.86.96,1.72,1.45,2.57-.4,3.64-.82,7.29-1.24,10.93-1.54,13.29-3.05,26.6-4.6,39.89M669.78,191.56c-1.26,6.4-2.35,12.52-4.32,18.66-.65,2.01-4.78,16.72-6.09,16.34-1.09-12.85-.91-26.22-1.15-39.14v-.09c-.06-3.25-.31-6.57.5-9.72.41-1.65-.62-3.43-.04-5.38.9-3.04,1.6-6.16,2.31-9.28.16.22.33.43.48.65,3.62,4.95,7.14,9.99,10.85,14.76-.82,4.4-1.68,8.8-2.55,13.21M659.55,140.38c.26.81.64,1.94,1.08,3.24-.17.6-.34,1.2-.51,1.8-.52,1.91-.38,4.28-1.62,5.79-.33-5.52-.48-11.05-.55-16.59.52,2.06,1.05,4.02,1.6,5.76M663.73,152.62c1.17,3.37,2.2,6.29,2.53,7.22.86,2.44,1.95,4.73,2.57,7.32-2.59-1.8-4.76-5.69-6.84-8.52.02-.09.04-.19.07-.28.5-2.01,1.09-3.87,1.67-5.74M657.5,107.62c-.29-7.45-.55-14.91-1-22.35-.23-3.74-.49-7.46.05-11.18.21-1.43,2.1-7.58,2.48-8.72.47-1.38.86-2.8,1.33-4.19.2-.6.38-1.19.57-1.79.86,2.11,1.74,4.22,2.78,6.24,3.23,6.25,6.53,12.41,9.87,18.55-.38,1.26-.72,2.52-.74,3.83-.03,2.17-.9,3.37-1.35,5.48-1.16,5.43-2.28,10.88-3.48,16.3-.69,3.15-1.86,11.44-2.18,12.85-1.14,4.98-2.42,9.92-3.57,14.9-.04.2-.1.39-.14.58-1.64-4.81-3.12-9.71-4.3-14.73-.05-5.27-.12-10.54-.33-15.79M684.82,69.42c.03,7.39-.9,15.58-1.45,21.68-.07.74-.14,1.48-.21,2.22-.65-1.19-1.29-2.37-1.93-3.49-.75-1.33-1.5-2.66-2.25-3.99,1.73-6.29,3.76-12.61,5.83-16.41M680.9,59.4c.17-3.2.34-6.4.5-9.6.09-1.72.13-3.42.17-5.11.14.5.28,1,.42,1.49,1.06,3.8,2.44,7.1,3.6,10.62-.9,3.73-2.38,6.57-4.52,10-1.07-1.89-.28-5.25-.17-7.4M687.18,108.59c.62,1.15,1.23,2.32,1.8,3.52.62,1.3,1.12,2.63,1.54,3.98-1.4,1.85-2.84,3.66-4.32,5.4-.08-4.25.47-8.61.97-12.9M688.97,85.21c.14-2.78.23-5.72.35-8.73.28,2.56.41,5.13.28,7.73-.18,3.44,1.03,6.84,1,10.34-.03,2.86-.4,5.73-.72,8.55-.69-.64-1.34-1.37-1.96-2.16.43-5.23.78-10.47,1.04-15.73M638.64,200.31c.51-2.19.96-4.19,1.26-5.73.33-1.69.48-2.81.35-3-.3-.42-.68.34-1.08,1.61-.45,1.43-.92,3.52-1.3,5.34-.23-.62-.45-1.29-.66-2.04-.84-3.09-1.77-6.03-2.75-8.94-1.16-3.46-2.35-6.99-3.46-10.59.41-1.37.82-2.75,1.28-4.07,1.35-3.85,5.98-16.85,7.33-20.69.04-.1.07-.21.11-.31,0,.06,0,.12,0,.17.32,6.68.56,13.38.71,20.07.23,10.47.21,20.95.21,31.42-.75-1.06-1.42-2.06-2.01-3.25M632.49,220.68c-.04.25-.09.49-.13.73-.25-7.94-.6-17.87-.78-24.5l-.12-5.5s-.09-.34-.23-.63c.33.58.67,1.15,1,1.73,1.69,2.97,3.35,6,5.07,8.85-.82,3.87-4.2,15.69-4.8,19.32M630.59,190.49c-.27.33-.25.92-.25.92-.15,2.52-.58,31.16-.6,32.13-.06,2.77-.12,5.54-.11,8.31,0,.57.01,1.15.02,1.73-.26.98-.52,1.95-.78,2.92-.41-2.44-3.15-21.37-3.26-22.1l-.41-.12c-.06,1.07,1.28,11.73,1.69,14.76.45,3.26.89,6.53,1.34,9.79-.44,1.56-.88,3.12-1.31,4.67-.79,2.79-1.52,5.6-2.18,8.49-1.48-4.63-2.87-9.33-4.1-14.28-.56-2.24-3.01-10.39-3.29-12.9-.21-1.83-.62.03-.69.78-.13,1.33.3,2.27.6,3.36.68,2.52,3.02,11.04,3.69,13.56.52,1.93.86,3.99,1.43,5.91.6,2.02,1.21,4.01,1.83,6-.8,3.46-2.08,5.56-3.69,7.89-.89,1.29-1.75,2.65-2.59,4.04-.45-2.36-.88-4.62-1.02-5.72-.27-2.01-.89-6.98-1.42-6.26-.3.4,1.01,7.92,1.89,12.9-2.08,3.52-4.07,7.21-6.22,10.6-1.71,1.41-1.65-1.13-1.61-3.36.07-4.2,1.68-16.54,2-20.7.73-9.46,2.11-18.69,3.08-28.06.45-4.3.72-8.34,2.04-12.05,1.21-3.44,2.69-6.56,4.02-9.83,2.5-6.15,4.99-12.31,7.42-18.57.24.47.46.92.68,1.29.78,1.34,1.56,2.67,2.34,4.01-.14-.21-.32-.33-.52-.1M626.81,251.31c.31-1.77.87-3.34,1.3-5.01.12-.46.43-1.66.82-3.18.24,1.22.46,2.43.6,3.78-.83,1.66-1.71,3.46-2.72,4.41M629.75,250.29c.14,2.2.25,4.42.05,6.66-.14,1.52.15,3.03.06,4.58-.08,1.26-.26,2.52-.43,3.76-.99-1.5-1.63-3.93-2.31-5.98-.28-.85-.55-1.71-.83-2.56,1.17-2.12,2.31-4.3,3.47-6.46M630.45,303.43c-.06,1.44.17,6.46-.46,7.43-1.75-3.34-3.26-7.12-5.1-10.3-.94-1.63-1.65-3.08-2-5.54-.33-2.33-.74-4.56-1.2-6.79-.99-4.79-2.04-9.71-2.56-14.88-.07-.7-.26-1.86-.5-3.22,1.52-2.93,3.1-5.72,4.81-8.47.68-1.1,1.34-2.22,1.99-3.37.48,1.5.96,3.01,1.43,4.51.69,2.15,1.47,4.21,2.08,6.46.66,2.44.68,5.05.8,7.84.26,6.08.76,12.08.87,18.21.05,2.7-.05,5.4-.16,8.12M629.09,330.27l-.89,11.38c-.36.56-.32,3.52-.38,4.37-.11,1.66-.21,3.32-.3,4.98-.05.95-.05,1.89-.08,2.84l-16.51-63.95c0-.75,0-1.5,0-2.25.02-3.15.3-4.28,1.58-6.37,1.28-2.07,2.63-4.08,3.76-6.44.59-1.23,1.18-2.43,1.78-3.6.46,2.9.75,7.19,1.23,10.11.31,1.91,1.39,7.71,1.57,8.68.2,1.09.48,2.12.61,3.27-.77-.86-1.35-2.7-1.94-3.99-.75-1.65-1.49-3.3-2.24-4.95l-1.8-1.28c.43,1.07,1.2,2.74,1.71,3.86.7,1.55,1.41,3.1,2.1,4.67,1.26,2.87,2.46,5.8,3.83,8.47,1.42,2.77,2.65,5.58,3.85,8.69.6,1.56,1.34,2.89,2.04,4.26.7,1.38.83,2.12.73,4.15-.21,4.36-.34,8.73-.67,13.08M627.5,181.36l-.58,1.83c-.59,1.5-1.24,2.76-1.84,4.25-1.5,3.69-3.01,7.36-4.54,11-1.31,3.11-2.59,6.83-4.36,9.07-.16-1.93-.35-3.89-.37-5.84-.01-2.39.6-4.71.51-7.07-.18-4.62.57-9.14,1.09-13.64.56-4.86,1.97-8.32,2.86-12.89.94-4.86,1.97-9.7,2.99-14.54,1.53,5.09,3.19,10.39,3.6,11.84.86,3.03,1.76,7.17,2.65,10.66-.66,1.79-1.34,3.56-2.02,5.32M629.39,181.92c.35-.93.67-1.88.97-2.85.85,2.85,3.06,9.82,3.44,11.04.45,1.43.98,2.77,1.36,4.3-1.11-1.03-2.16-3.41-3.11-5.05-1.11-1.9-2.22-3.81-3.33-5.72.22-.58.45-1.15.67-1.73M608.09,220.45l.65-19.75c-.07-4.72-.16-9.46-.22-14.19.02-3.34.03-6.67.03-10.01,0-.92,0-1.85,0-2.78.01-.72.02-1.44.04-2.16.03-.92,0-1.83-.06-2.76-.04-12.47-.1-24.94.35-37.39.25-6.92.7-13.78,1.19-20.68.19-2.8-.43-5.55-.32-8.38.12-3.15.67-6.24,1.38-9.25,0,0,0,0,0,0h0c2.6-11.07,6.7-22.97,11.54-32.76,3.58,4.9,10.88,33.95,11.71,37.44,1.5,6.3,2.81,12.66,4.09,19.03,1.04,5.15,2.93,13.15,1.13,18.3-.14-.38-.15,6.09-.02,11.88-1.23,4.75-5.32,15.39-6.35,18.52-.97,2.96-1.99,5.86-3.03,8.72-.6-2.07-1.16-4.17-1.66-6.31-.7-2.97-3.8-12.18-4.91-16.01.99-4.72,1.58-9.5,2.42-14.26.09-.55.28-7.23,1.36-11.78,1.47-6.19.48-4.37.48-4.58l-2.05,10.17c-.16,1-.77,5.48-.84,5.9-.62,3.78-1.44,7.58-2.25,11.32-.8-2.95-1.88-6.57-2.26-5.76-.16.33.72,3.59,1.88,7.54-.19.88-.38,1.76-.56,2.63-.38,1.81-2.63,14.24-3.54,14.07-.08-3.73.4-7.6.63-11.3.15-2.46.26-4.92.36-7.38.07-1.82,1.14-7.05.2-5.46l-11.62,95.45c.08-6.01.16-12.01.26-18.02M585.02,155.18c-.15,4.7-.51,9.41-.81,14.11-.06-.59-.1-1.2-.11-1.88-.05-3.2-.23-6.28-.46-9.34-.49-6.62-1.04-13.42-.9-20.49.06-3.28-.79-14.28-.83-17.55-.03-2.76-.05-9.57-.8-8.67-.58.7.56,20.31.65,23.35.11,3.99-.17,9.74-.02,13.7.1,2.63.55,10.63.63,11.96.08,1.5.27,2.93.25,4.51-.81-1.27-1.25-3.84-1.77-5.66-.67-2.34-3.25-10.8-3.92-13.14l-.47,1.22,1.89,8.41c.63,2.2,1.26,4.38,1.88,6.61,1.18,4.3,2.27,8.69,3.65,12.68,0,.02,0,.03,0,.05-.08,2.02-.13,4.04-.13,6.06,0,1.33.08,2.66.1,3.98l-10.29-39.86c1.33-5.38,2.65-13.44,3.29-16.07.41-1.67.71-3.12.53-5.16-.1-1.16-.01-2.81-.3.02-.36,3.44-3.08,13.72-4.24,18.42l-8.25-31.94v-1.16s.25-11.84.25-11.84c1.99-12.75,4.3-25.45,5.75-38.21.68-6,.78-12.36,2.04-18.23,1.09-5.11,3.81-9.81,5.86-14.38.89-1.97,1.76-3.94,2.63-5.92.07.75.14,1.49.21,2.24.95,11.33,1.01,22.74,1.96,34.07,2.73,32.65,2.73,65.29,1.7,98.1M574.61,199.1c-.72,7.99-2.19,15.6-3.57,23.01-.64,3.43-1.23,6.89-1.68,10.49-.48,3.8-1.49,6.05-2.8,8.57-1.27,2.44-2.42,5.1-3.57,7.79-.24-9.49-.98-19.01-.84-28.49.06-4.2.71-8.18.61-12.49-.03-1.2-.05-2.4-.08-3.61l.39-19.13c.25-.81.49-1.62.73-2.44,2.13-7.37,4.25-14.74,6.27-22.27.11-.41.18-.84.27-1.25l6.85,23.59c-.85,5.18-2.33,13.33-2.6,16.25M564.05,137.54l5.34,18.4c-.9,3.41-1.7,6.94-2.66,10.27-1.08,3.74-2.17,7.48-3.28,11.18-.08.25-.15.5-.22.75l.82-40.6ZM550.05,96.79c-1.94-3.57-2.35-9.02-3.24-13.18-1.04-4.84-1.9-9.71-2.66-14.64l6.83,23.54c-.27,1.45-.5,2.93-.93,4.28M535.99,247.32c-2.07-5.25-2.72-10.72-2.88-16.29.95-2.86,2.01-6.07,2.44-7.4.32-.97.55-1.8.41-2.98-.08-.67-.29-2.34-.51-.7-.2,1.47-1.41,5.09-2.39,7.98-.02-8.84.75-17.89-1.29-26.75l-6.57-131.15c-.04-.82.13-1.63.47-2.37,1.42-3.02,1.7-1.35,2.12,2.51.42,3.9.84,7.79,1.25,11.69.8,7.5,1.17,15.36,2.76,22.67l4.67,45.9c.29,17.08-.34,34.16-.06,51.22.13,8.03.05,16.07.04,24.1,0,2.91,1.19,20.72-.46,21.58M533.07,277.5c-.63,1.15-1.26,2.79-2.09,3.56.14-1.03.44-1.95.65-2.92.16-.68.91-4.05,1.4-6.27.36,1.25.72,2.5,1.08,3.74-.35.63-.69,1.26-1.03,1.88M529.45,282.6c-.37,2.19-1.15,3.49-2.17,4.94-1.98,2.84-3.62,6.21-5.51,9.19-.69-.86-.44-5.35-.5-6.63-.12-2.42-.22-4.84-.17-7.24.11-5.47.66-10.82.94-16.25.13-2.49.15-4.83.87-7,.66-2.01,1.51-3.85,2.25-5.76.55-1.42,1.1-2.85,1.65-4.27.18.65.35,1.31.53,1.96,1.66,6.05,3.35,12.1,5.07,18.13-.5,2.33-1.09,4.62-1.65,6.87-.49,1.98-.95,3.97-1.3,6.05M523.17,232.25c-.12.34-.89.53-.99.52-.07-.77-.41-20.91-.41-21.7.14.6,1.27,20.57,1.41,21.18M522.16,240.75c.13-2.12.62-3.81,1.02-5.65.97,4.1,1.97,8.19,3.03,12.25-.45,1.13-.89,2.27-1.34,3.39-.73,1.83-1.43,4-2.5,5.33-.18-1.11-.38-2.23-.46-3.36-.1-1.38.21-2.73.06-4.08-.3-2.66.02-5.28.19-7.89M767.7,351.39c-.01-2.76-.02-5.51-.05-8.27-.01-1.63-.2-15.42-.25-18.28-.09-5.42-.19-10.83-.12-16.24.15-10.42,0-20.87-.13-31.29-.15-11.44-1.05-22.93-.9-34.36l.14-59.91c-.44-13.39-1.64-27.14-1.05-40.54.25-5.57.77-11.11,1.34-16.64l-31.84-18.65c.31,2.59.55,5.21,1.04,7.72,3.27,16.56,4.41,33.63,4.67,50.68.29,18.86-.34,37.72-.06,56.56.13,8.87.05,17.74.04,26.61,0,3.22,2.32,25.08-.47,23.82-1.93-5.4-3.65-10.99-5.22-16.68.44-1.08.89-2.15,1.34-3.22.35-.84.88-2.2,1.17-2.86-.06.15.42-.99.4-1.37-.01-.25-.15-.35-.26-.37-.55-.04-1.06,1.93-1.37,2.68-.51,1.23-1.02,2.45-1.53,3.67-.03.07-.06.15-.09.23-.16-.58-.31-1.16-.47-1.74.26-1.55.6-3.52.73-4.39.32-2.14.52-5.26.82-7.41.23-1.64,2.05-12.19,1.78-12.6-.36-.53-.78,3.15-.97,4.64-.22,1.76-1.36,7.67-1.52,9.44-.27,2.97-.76,5.83-1.29,8.62-1.43-5.45-2.73-10.98-3.96-16.51,1.03-3.51,2.06-7.02,3.04-10.61.39-1.42.62-2.95.97-4.38.46-1.87,1.8-8.21,2.26-10.07.2-.8.42-1.55.51-2.46.06-.55-.18-1.94-.32-.58-.19,1.86-1.87,7.9-2.25,9.56-.85,3.7-1.8,7.21-2.82,10.67-.53,1.8-1.06,3.59-1.6,5.36-.07.23-.14.46-.21.69-.54-2.46-1.07-4.93-1.59-7.39.03-.54.06-1.07.09-1.61.11-2.24.57-3.89.84-5.97.35-2.73.69-5.46,1.03-8.18.28-2.25.41-4.51.64-6.77.06-.55.67-6.67.64-7.78-.32.42-.3,1.28-.3,1.28-.23,2.54-1.39,11.5-1.71,13.98-.11.87-.74,6.87-1.12,6.81-.12-1.78-.02-3.64-.01-5.42,0-2.05-.04-4.1-.08-6.16-.01-.72-.45-10.21-.55-12.08l-.66.91c.04,4.01-.79,14.78-.77,18.52,0,1.05.01,2.09.02,3.14-1.51-7.19-3.02-14.37-4.6-21.53-.9-4.08-2-8.1-2.82-12.21-.7-3.48-.18-7.18.06-10.7.6-8.91,2.1-17.49,2.41-26.44.28-8.13,1.25-16.09,1.88-24.17.53-6.79.4-13.77.94-20.56l-6.09-3.57c-.69,7.86-1.73,15.55-2.3,23.54-.68,9.54-.99,19.52-2.49,28.88-2.47,0-2.93-32.3-2.9-36.06.04-7.23.11-14.49.15-21.74.04-.06.07-.11.1-.17v-4.88s-.05.09-.08.13c.02-4.24.02-8.47,0-12.7-.04-6.12-.21-12.34-.38-18.54l-4.58-2.65c.37,13.41-.06,26.86-.32,40.26-.01.66-.02,1.32-.03,1.98-1.6,2.54-3.21,5.1-4.84,7.62-.22-4.45-.31-7.96-.32-9.01-.04-6.46-.07-12.47-.83-18.87-.66-5.59-2.4-22.54-2.65-26.32-.02-.29-.04-.59-.06-.88l-10.25-5.92c.02.77.13,1.55.11,2.31-.5.07-1.21-1.34-1.98-3.39l-6.73-3.88c-.53,8.84-1.09,17.68-1.57,26.52-.27,5.01-.04,10.24-.6,15.23-.88-1.6-1.77-3.19-2.65-4.79-3.44-6.25-6.77-12.56-9.96-19.01.32-1.17.63-2.34.94-3.51,1.74-6.55,3.07-13.2,4.42-19.88l-6.65-3.84c-.95,4.67-2.35,10.89-3.89,11.39-.32-4.53-.22-9.09-.04-13.66l-14.51-8.38c-.24,7.63-.46,15.27-.59,22.91-.09,4.89-.17,9.77-.27,14.66-.02,1.15.24,10.26-.51,10.58-2.41,1.03-.03,13.95-1.12,17.17-2.1-2.85-2.57-8.67-3.55-12.24-1.17-4.28-2.44-8.52-3.78-12.72-1.23-3.86-3.4-8.18-3.95-12.28-.48-3.61,1.7-8.38,2.59-11.75,1.75-6.63,3.28-13.36,4.48-20.19l-22.47-12.97h-4.46c1.58,6.4,3.35,12.99,4.08,19.46.55,4.91-3.02,12.69-4.78,17.06-2.22-.22-3.54-29.4-3.84-33.13-.03-.37-.12-1.75-.22-3.39h-4.83c.82,10.62,1.52,21.26,2.46,31.87.52,5.98,2.26,14.45.83,20.31-.8,3.25-2.64,6.33-3.76,9.44-.96,2.68-1.58,5.63-2.76,8.16-1.31-5.58-1.03-11.92-1.29-17.69-.26-5.54-.51-11.09-.77-16.63-.23-4.88-1.16-9.58-1.32-14.51-.17-5.38-.77-10.59-1.43-15.91-.21-1.68-.43-3.36-.65-5.04h-12.14c.26,1.86.51,3.73.77,5.4.52,3.33.96,6.68,1.34,10.05-2.12,4.76-4.44,9.37-6.93,13.63-.76-2.9-.1-7.39.07-10.41.22-4.03.45-8.07.67-12.1.12-2.19.24-4.38.36-6.57h-6.14l-2.77,48.62.99-48.62h-5.74c-.12,10.64-1.1,21.06-2.07,31.65-.86,9.46-2.08,18.89-3.26,28.32l-5.43-41.01-.54-.68,4.83,50.8c-.08.58-.18,1.16-.26,1.73l-11.73-45.45c1.6-4.13,3.02-8.39,4.66-12.51.95-2.4,1.91-4.81,2.86-7.21.59-1.49.45-3.37,1.03-4.89.11-.29.29-.51.46-.74h-1.98c-.56,1.48-1.08,2.98-1.69,4.44-1.57,3.78-3.44,7.33-4.86,11.19-.5,1.35-.16-6.54.24-15.63h-26.66v372.74h12.92c-.08-5.86-1.69-26.19-1.78-31.76l-.37-12.87-1.37-14.05c-.35-3.88-.49-7.78-.72-11.67-.11-1.82-.39-3.68-.01-5.07l4.42-8.06c1.48-2.38,2.78-5,4.14-7.55.42-.79.84-1.56,1.27-2.33.53,1.82.43,1.52.97,3.33,2.72,9.18,1.59,20.12,1.57,29.78-.03,19.95.32,40.32.23,60.27h26.84c-.3-7.37-.72-16.85-1.06-24.6.07-5.93.12-10.39.09-11.9-.12-5.87-.22-11.74-.25-17.6-.01-2.5-.02-4.99-.05-7.49-.01-1.47-.2-13.97-.25-16.55-.09-4.9-.19-9.8-.12-14.71.13-8.22.04-16.45-.08-24.68.18-.45.35-.89.52-1.36,1.68-4.82,3.4-9.16,5.37-13.44,1.9-4.13,3.59-8.66,5.35-13.09.97-2.43,1.65-4.96,2.94-7.22.85-1.49,1.87-4.02,2.39-5.98.04-.14,1.98-13.53,1.95-14.32l-1.16.32c-1.17,3.56-2.76,14.66-3.3,15.97-1.04,2.56-2.08,5.1-3.12,7.66-.82,1.99-1.63,4.84-2.7,6.17.18-1.78.57-3.37.85-5.05.25-1.5,1.76-10.47,2.2-13.42.66-4.45,1.06-10.98,1.69-15.46.2-1.42.96-6.06,1.74-11.05l6.56,22.6c.06,15.35-.23,30.65-.18,45.98.03,8.55.84,17.03,1.03,25.57.17,8.02-.08,16.02-.06,24.03.02,9.28-.12,41.81-.3,69.62h26.04c.04-7.43.11-14.66.27-18.35.21-4.8.38-9.57.4-14.39,0-2.57-.36-4.83-.39-7.39l-.14-1.72c.11-3.41-.19-6.79-.08-9.61l-.09-13.4c-.07-2.99.01-5.98.04-8.98l16.49,56.82c-.04,1.53-.11,3.06-.13,4.59-.03,2.45-.24,7.47-.48,12.43h5.26c.01-.16.68-11.62.9-16.71.22-4.93.4-9.86.61-14.79.41-9.57.6-19.25,1.41-28.8l-1.77-34.94c-.28-3.83-.7-14.6-.62-16.23.14-2.85.28-5.51.21-8.34-.04-1.55-.11-5.09-.14-7.92.6-1.07,6.38-14.05,6.98-15.13l-1.13.51c-.63,1.15-5.24,9.69-5.87,10.84.03-2.59.04-5.19.06-7.78,0-.99-.04-3.04-.11-5.73.62-3.47,1.2-7.21,1.85-10.08.4-1.79,2.19-8.72,3.69-14.99.13.21.26.42.4.63.74,1.16,1.46,2.32,2.17,3.5,0,1.63,0,3.26,0,4.89.05,25.7.12,51.39.11,77.09-.01,24.16-.25,48.36-.73,72.52-.08,3.63-.17,7.8-.28,11.47h20.44c-.05-2.08-.11-4.63-.1-6.65.03-4.99-.06-9.99-.18-14.98-.18-7.6,1.09-16.58-.32-24.05l-.07-3.29c.03-1.01-.05-3.91-.12-4.83-.5-6.48-.41-13.01-.3-19.51.24-14.22.45-28.45.61-42.67.04-3.6-.32-7.68.29-11.21.5-2.85,2.1-5.71,3.15-8.29,2.25-5.53,4.39-11.15,6.74-16.61.06-.13.11-.27.16-.4.12,4.96.25,9.98.27,13.93.02,3.55.04,7.11.08,10.66.02,2.28-.13,12.5-.21,15.88-.09,3.86.07,7.48.25,11.36.1,2.22-.66,13.23-2.58,22.04l-.35,47.64c.77,10.11,1.09,20.83,1.43,31h6.35c-.2-2.11-.43-4.69-.56-6.73-.4-5.93-.55-11.88-.82-17.81-.12-2.78.04-3.78.9-5.66.85-1.87,1.77-3.68,2.51-5.8,1.48-4.25,2.99-8.07,4.73-11.84,1.68-3.64,3.16-7.63,4.71-11.53.85-2.14,1.73-4.24,2.59-6.36.63-1.54,2.23-6.22,3.04-7.25l-.9.33c-.92,2.25-4.09,7.89-5.01,10.14-.72,1.76-1.43,4.26-2.38,5.43.16-1.57.5-2.97.75-4.45.22-1.32,1.55-9.22,1.94-11.82.58-3.92.94-9.67,1.49-13.62.34-2.46,2.61-15.88,3.14-21.09l-.87.47c-.34,1.97-.64,4.56-.81,6.01-.4,3.24-2.45,14.08-2.75,17.35-.64,7.04-1.93,13.74-3.14,20.26-.56,3.02-1.08,6.06-1.48,9.24-.43,3.35-1.31,5.33-2.46,7.55-2.26,4.34-4.12,9.48-6.27,14.03-.78-1.32-.5-8.16-.57-10.12-.13-3.69-.25-7.38-.19-11.06.13-8.35.75-16.52,1.07-24.8.14-3.8.17-7.36.99-10.68.75-3.07,1.71-5.87,2.56-8.8,1.88-6.49,3.74-12.98,5.52-19.61.7-2.61,1.12-5.42,1.76-8.05.84-3.43,5.05-21.42,5.89-24.85l-1.46.75c-.35,3.42-3.37,14.52-4.05,17.57-1.53,6.79-3.25,13.24-5.09,19.6-.95,3.3-1.91,6.58-2.89,9.84-.84,2.79-1.63,6.11-2.84,8.14-.21-1.69-.43-3.41-.52-5.13-.12-2.1.24-4.17.07-6.24-.33-4.06.03-8.07.21-12.04.19-4.12,1.04-7.14,1.51-10.96.62-5.01,1.24-10.02,1.86-15.03.51-4.13,1.92-22.71,2.33-26.86.1-1-.54-.81-1.14-.9l-.62,9.09c-.08.88-.09,1.85-.13,2.22-.41,4.66-1.19,13.21-1.78,17.76-.21,1.61-1.33,12.63-2.02,12.51-.22-3.27-.03-6.7-.02-9.96,0-3.76-.07-7.54-.14-11.31-.02-1.14.12-9.54.04-14.01,1.4-7.29,2.11-14.87,3.35-22.17,4.42,5.43,8.42,10.99,12.39,17.11,2.24,3.45,4.92,6.39,7.45,9.42,2.54,3.05,3.1,4.71,3.13,9.32.08,9.87.45,19.75.17,29.62-.23,7.89-1.57,16.23-.9,24.09l.02,1.72c-.12,5.08-.42,7.98-.45,9.91-.06,3.76-.09,7.52-.08,11.28.04,7.06.36,14.03.78,21.05.6,10.04.54,35.67.79,54.73h17.4c-.23-9.6-.48-22.42-.38-29.4-.22.72-.43,1.43-.65,2.14l.62-2.06c1.16-11.46.26-24.08.08-35.65-.17-11.16-.45-22.31-.65-33.47-.38-21.68-1.48-43.56-.56-65.23,3.03,12.02,5.51,24.29,8.02,36.55l-.37,26c.55,7.08.68,14.25.96,21.35.14,3.65.26,7.31.41,10.96.15,3.79.17,7.93.61,11.67l-.02,2.45,1.01,54.68h3.55c-.43-22.23-1.23-62.18-1.28-65.62-.03-2.31-.08-4.59-.19-6.9-.06-1.23-.13-2.46-.2-3.69l-.87-11.68c-.22-3.23-.31-6.47-.45-9.69-.07-1.51.02-2.06.5-3.08.45-.97.93-1.92,1.33-3,.63,2.75,1.28,5.49,1.96,8.22,2.85,11.5,5.79,23,8.85,34.39,2.72,10.13,1.59,22.22,1.57,32.89-.01,9.22.06,18.95.12,28.16h25.98c0-.63,0-1.58,0-1.91-.12-6.48-.22-12.96-.25-19.44"/>
</svg>